<mxfile host="app.diagrams.net" modified="2024-05-14T14:53:15.060Z" agent="Mozilla/5.0 (Windows NT 10.0; Win64; x64) AppleWebKit/537.36 (KHTML, like Gecko) Chrome/124.0.0.0 Safari/537.36" version="24.4.0" etag="Hps8sfTgGBQwTw71AkE5" type="github">
  <diagram name="PÃ¡gina-1" id="6t7v3AjN5FN_KuiOr68T">
    <mxGraphModel>
      <root>
        <mxCell id="0" />
        <mxCell id="1" parent="0" />
      </root>
    </mxGraphModel>
  </diagram>
</mxfile>
